<svg preserveAspectRatio="none" overflow="visible" style="display: block;" width="20" height="20" viewBox="0 0 20 20" fill="none" xmlns="http://www.w3.org/2000/svg">
<g id="wallet-3-fill">
<path id="Vector" d="M18.3374 4.99983H12.5041C9.74267 4.99983 7.50407 7.2384 7.50407 9.99983C7.50407 12.7612 9.74267 14.9998 12.5041 14.9998H18.3374V16.6665C18.3374 17.1267 17.9643 17.4998 17.5041 17.4998H2.50407C2.04383 17.4998 1.67073 17.1267 1.67073 16.6665V3.33316C1.67073 2.87292 2.04383 2.49983 2.50407 2.49983H17.5041C17.9643 2.49983 18.3374 2.87292 18.3374 3.33316V4.99983ZM12.5041 6.66649H19.1707V13.3332H12.5041C10.6631 13.3332 9.17075 11.8407 9.17075 9.99983C9.17075 8.15887 10.6631 6.66649 12.5041 6.66649ZM12.5041 9.1665V10.8332H15.0041V9.1665H12.5041Z" fill="#203451"/>
</g>
</svg>
